<svg width="72" height="72" viewBox="0 0 72 72" fill="none" xmlns="http://www.w3.org/2000/svg">
<ellipse cx="36.1967" cy="35.9892" rx="35.7749" ry="35.7646" fill="#F3BB2E"/>
<path d="M49.0473 35.987L54.5715 30.4637L60.0961 35.987L54.5715 41.5098L49.0473 35.987ZM12.2871 35.9899L17.8113 30.4671L23.3355 35.9899L17.8113 41.5127L12.2871 35.9899ZM36.1899 48.8461L27.0325 39.6911L21.5092 45.213L36.1899 59.89L50.8707 45.213L45.3473 39.6911L36.1899 48.8461ZM36.1899 23.1337L45.3473 32.2888L50.8707 26.7668L36.1899 12.0898L21.5092 26.7668L27.0325 32.2888L36.1899 23.1337Z" fill="black"/>
<path d="M30.7324 35.9921L36.1881 30.5371L41.6438 35.9921L36.1881 41.4471L30.7324 35.9921Z" fill="black"/>
</svg>
