<svg width="33" height="33" viewBox="0 0 33 33" fill="none" xmlns="http://www.w3.org/2000/svg">
<path d="M20.1992 29.8379H12.1992C10.8736 29.8363 9.60278 29.309 8.66544 28.3717C7.7281 27.4343 7.20081 26.1635 7.19922 24.8379V14.8379C7.19922 14.5727 7.30458 14.3183 7.49211 14.1308C7.67965 13.9432 7.934 13.8379 8.19922 13.8379H24.1992C24.4644 13.8379 24.7188 13.9432 24.9063 14.1308C25.0939 14.3183 25.1992 14.5727 25.1992 14.8379V24.8379C25.1976 26.1635 24.6703 27.4343 23.733 28.3717C22.7957 29.309 21.5248 29.8363 20.1992 29.8379ZM9.19922 15.8379V24.8379C9.19922 25.6335 9.51529 26.3966 10.0779 26.9592C10.6405 27.5218 11.4036 27.8379 12.1992 27.8379H20.1992C20.9949 27.8379 21.7579 27.5218 22.3205 26.9592C22.8831 26.3966 23.1992 25.6335 23.1992 24.8379V15.8379H9.19922ZM19.1992 9.83789H13.1992C12.934 9.83789 12.6796 9.73253 12.4921 9.545C12.3046 9.35746 12.1992 9.10311 12.1992 8.83789V7.83789C12.1992 6.77702 12.6206 5.75961 13.3708 5.00946C14.1209 4.25932 15.1384 3.83789 16.1992 3.83789C17.2601 3.83789 18.2775 4.25932 19.0276 5.00946C19.7778 5.75961 20.1992 6.77702 20.1992 7.83789V8.83789C20.1992 9.10311 20.0939 9.35746 19.9063 9.545C19.7188 9.73253 19.4644 9.83789 19.1992 9.83789ZM14.1992 7.83789H18.1992C18.1992 7.30746 17.9885 6.79875 17.6134 6.42368C17.2384 6.0486 16.7297 5.83789 16.1992 5.83789C15.6688 5.83789 15.1601 6.0486 14.785 6.42368C14.4099 6.79875 14.1992 7.30746 14.1992 7.83789Z" fill="white"/>
<path d="M24.1992 15.8379H8.19922C7.934 15.8379 7.67965 15.7325 7.49211 15.545C7.30458 15.3575 7.19922 15.1031 7.19922 14.8379V12.8379C7.20081 11.5123 7.7281 10.2414 8.66544 9.30411C9.60278 8.36677 10.8736 7.83948 12.1992 7.83789H20.1992C21.5248 7.83948 22.7957 8.36677 23.733 9.30411C24.6703 10.2414 25.1976 11.5123 25.1992 12.8379V14.8379C25.1992 15.1031 25.0939 15.3575 24.9063 15.545C24.7188 15.7325 24.4644 15.8379 24.1992 15.8379ZM9.19922 13.8379H23.1992V12.8379C23.1992 12.0422 22.8831 11.2792 22.3205 10.7166C21.7579 10.154 20.9949 9.83789 20.1992 9.83789H12.1992C11.4036 9.83789 10.6405 10.154 10.0779 10.7166C9.51529 11.2792 9.19922 12.0422 9.19922 12.8379V13.8379Z" fill="white"/>
<path d="M26.1992 15.8379H6.19922C5.934 15.8379 5.67965 15.7325 5.49211 15.545C5.30458 15.3575 5.19922 15.1031 5.19922 14.8379C5.19922 14.5727 5.30458 14.3183 5.49211 14.1308C5.67965 13.9432 5.934 13.8379 6.19922 13.8379H26.1992C26.4644 13.8379 26.7188 13.9432 26.9063 14.1308C27.0939 14.3183 27.1992 14.5727 27.1992 14.8379C27.1992 15.1031 27.0939 15.3575 26.9063 15.545C26.7188 15.7325 26.4644 15.8379 26.1992 15.8379ZM13.1992 25.8379C12.934 25.8379 12.6796 25.7325 12.4921 25.545C12.3046 25.3575 12.1992 25.1031 12.1992 24.8379V18.8379C12.1992 18.5727 12.3046 18.3183 12.4921 18.1308C12.6796 17.9432 12.934 17.8379 13.1992 17.8379C13.4644 17.8379 13.7188 17.9432 13.9063 18.1308C14.0939 18.3183 14.1992 18.5727 14.1992 18.8379V24.8379C14.1992 25.1031 14.0939 25.3575 13.9063 25.545C13.7188 25.7325 13.4644 25.8379 13.1992 25.8379ZM19.1992 25.8379C18.934 25.8379 18.6796 25.7325 18.4921 25.545C18.3046 25.3575 18.1992 25.1031 18.1992 24.8379V18.8379C18.1992 18.5727 18.3046 18.3183 18.4921 18.1308C18.6796 17.9432 18.934 17.8379 19.1992 17.8379C19.4644 17.8379 19.7188 17.9432 19.9063 18.1308C20.0939 18.3183 20.1992 18.5727 20.1992 18.8379V24.8379C20.1992 25.1031 20.0939 25.3575 19.9063 25.545C19.7188 25.7325 19.4644 25.8379 19.1992 25.8379Z" fill="white"/>
</svg>
