<svg width="33" height="33" viewBox="0 0 33 33" fill="none" xmlns="http://www.w3.org/2000/svg">
<path d="M19.2659 10.2379L17.5992 11.8912L8.71922 20.7712C8.51518 20.977 8.38407 21.2439 8.34589 21.5312L7.39922 28.1179C7.30055 28.9046 7.78589 29.6379 8.91922 29.6379L15.5059 28.6912C15.7932 28.653 16.0601 28.5219 16.2659 28.3179L25.1459 19.4379L26.6392 17.9446C26.6958 17.8899 26.7492 17.832 26.7992 17.7712C27.727 16.7582 28.2281 15.4263 28.1979 14.053C28.1678 12.6796 27.6088 11.3709 26.6375 10.3996C25.6662 9.42827 24.3575 8.8693 22.9842 8.83917C21.6108 8.80905 20.2789 9.3101 19.2659 10.2379ZM22.8659 11.5312C23.2151 11.5266 23.5618 11.5916 23.8856 11.7223C24.2095 11.853 24.5041 12.0468 24.7523 12.2926C25.0005 12.5383 25.1973 12.8309 25.3313 13.1535C25.4652 13.476 25.5336 13.822 25.5326 14.1712C25.5334 14.7402 25.3459 15.2934 24.9992 15.7446L21.2926 12.0379C21.7472 11.701 22.3001 11.523 22.8659 11.5312ZM14.6926 26.1179L10.2926 26.7446L10.9192 22.3446L19.3726 13.9046L23.1326 17.6646L14.6926 26.1179ZM5.53255 7.50456H17.5326C17.8862 7.50456 18.2253 7.36408 18.4754 7.11403C18.7254 6.86398 18.8659 6.52485 18.8659 6.17122C18.8659 5.8176 18.7254 5.47846 18.4754 5.22841C18.2253 4.97837 17.8862 4.83789 17.5326 4.83789H5.53255C5.17893 4.83789 4.83979 4.97837 4.58974 5.22841C4.33969 5.47846 4.19922 5.8176 4.19922 6.17122C4.19922 6.52485 4.33969 6.86398 4.58974 7.11403C4.83979 7.36408 5.17893 7.50456 5.53255 7.50456ZM5.53255 12.8379H13.5326C13.8862 12.8379 14.2253 12.6974 14.4754 12.4474C14.7254 12.1973 14.8659 11.8582 14.8659 11.5046C14.8659 11.1509 14.7254 10.8118 14.4754 10.5617C14.2253 10.3117 13.8862 10.1712 13.5326 10.1712H5.53255C5.17893 10.1712 4.83979 10.3117 4.58974 10.5617C4.33969 10.8118 4.19922 11.1509 4.19922 11.5046C4.19922 11.8582 4.33969 12.1973 4.58974 12.4474C4.83979 12.6974 5.17893 12.8379 5.53255 12.8379ZM8.19922 15.5046H5.53255C5.17893 15.5046 4.83979 15.645 4.58974 15.8951C4.33969 16.1451 4.19922 16.4843 4.19922 16.8379C4.19922 17.1915 4.33969 17.5307 4.58974 17.7807C4.83979 18.0307 5.17893 18.1712 5.53255 18.1712H8.19922C8.55284 18.1712 8.89198 18.0307 9.14203 17.7807C9.39208 17.5307 9.53255 17.1915 9.53255 16.8379C9.53255 16.4843 9.39208 16.1451 9.14203 15.8951C8.89198 15.645 8.55284 15.5046 8.19922 15.5046Z" fill="white"/>
</svg>
