<svg width="33" height="33" viewBox="0 0 33 33" fill="none" xmlns="http://www.w3.org/2000/svg">
<path fill-rule="evenodd" clip-rule="evenodd" d="M0.936523 16.8789C0.936523 8.04235 8.09997 0.878906 16.9365 0.878906C25.7731 0.878906 32.9365 8.04235 32.9365 16.8789C32.9365 25.7155 25.7731 32.8789 16.9365 32.8789C8.09997 32.8789 0.936523 25.7155 0.936523 16.8789Z" fill="#441462"/>
<path fill-rule="evenodd" clip-rule="evenodd" d="M16.9375 8.3457C14.6199 8.3457 14.3291 8.35584 13.4188 8.39726C12.5104 8.43886 11.8903 8.58268 11.3477 8.79371C10.7865 9.01167 10.3104 9.30322 9.83605 9.77772C9.36137 10.252 9.06982 10.7281 8.85115 11.2892C8.63959 11.832 8.49559 12.4522 8.4547 13.3603C8.41399 14.2706 8.40332 14.5616 8.40332 16.8791C8.40332 19.1967 8.41363 19.4866 8.45488 20.3968C8.49665 21.3053 8.64048 21.9254 8.85133 22.468C9.06946 23.0292 9.36102 23.5053 9.83551 23.9796C10.3097 24.4543 10.7857 24.7466 11.3466 24.9645C11.8896 25.1756 12.5099 25.3194 13.4181 25.361C14.3284 25.4024 14.619 25.4125 16.9364 25.4125C19.2541 25.4125 19.5441 25.4024 20.4543 25.361C21.3627 25.3194 21.9836 25.1756 22.5265 24.9645C23.0876 24.7466 23.5629 24.4543 24.0371 23.9796C24.5118 23.5053 24.8033 23.0292 25.022 22.4682C25.2318 21.9254 25.3758 21.3051 25.4184 20.397C25.4593 19.4868 25.47 19.1967 25.47 16.8791C25.47 14.5616 25.4593 14.2707 25.4184 13.3605C25.3758 12.4521 25.2318 11.832 25.022 11.2894C24.8033 10.7281 24.5118 10.252 24.0371 9.77772C23.5624 9.30305 23.0877 9.01149 22.526 8.79371C21.982 8.58268 21.3615 8.43886 20.453 8.39726C19.5428 8.35584 19.253 8.3457 16.9348 8.3457H16.9375ZM16.1719 9.88347C16.3991 9.88312 16.6526 9.88347 16.9374 9.88347C19.2158 9.88347 19.4859 9.89165 20.3856 9.93254C21.2176 9.97058 21.6692 10.1096 21.97 10.2264C22.3682 10.3811 22.6521 10.566 22.9506 10.8646C23.2493 11.1633 23.4342 11.4478 23.5892 11.846C23.706 12.1464 23.8452 12.598 23.8831 13.43C23.924 14.3296 23.9329 14.5998 23.9329 16.8771C23.9329 19.1545 23.924 19.4247 23.8831 20.3243C23.845 21.1563 23.706 21.6079 23.5892 21.9083C23.4346 22.3065 23.2493 22.5901 22.9506 22.8886C22.652 23.1873 22.3684 23.3721 21.97 23.5268C21.6696 23.6441 21.2176 23.7828 20.3856 23.8209C19.4861 23.8618 19.2158 23.8706 16.9374 23.8706C14.6588 23.8706 14.3888 23.8618 13.4892 23.8209C12.6572 23.7825 12.2056 23.6434 11.9047 23.5266C11.5064 23.372 11.222 23.1871 10.9233 22.8884C10.6246 22.5897 10.4397 22.306 10.2847 21.9076C10.1679 21.6072 10.0287 21.1556 9.99086 20.3236C9.94997 19.424 9.94179 19.1538 9.94179 16.875C9.94179 14.5962 9.94997 14.3274 9.99086 13.4279C10.0289 12.5959 10.1679 12.1443 10.2847 11.8435C10.4394 11.4453 10.6246 11.1608 10.9233 10.8621C11.222 10.5635 11.5064 10.3786 11.9047 10.2236C12.2055 10.1062 12.6572 9.96756 13.4892 9.92934C14.2764 9.89378 14.5815 9.88312 16.1719 9.88134V9.88347ZM21.4925 11.3004C20.9272 11.3004 20.4685 11.7585 20.4685 12.324C20.4685 12.8894 20.9272 13.348 21.4925 13.348C22.0578 13.348 22.5165 12.8894 22.5165 12.324C22.5165 11.7587 22.0578 11.3004 21.4925 11.3004ZM16.9375 12.4968C14.5174 12.4968 12.5552 14.459 12.5552 16.8791C12.5552 19.2992 14.5174 21.2605 16.9375 21.2605C19.3576 21.2605 21.319 19.2992 21.319 16.8791C21.319 14.459 19.3576 12.4968 16.9375 12.4968ZM16.9374 14.0346C18.5083 14.0346 19.7819 15.3081 19.7819 16.8791C19.7819 18.45 18.5083 19.7236 16.9374 19.7236C15.3664 19.7236 14.093 18.45 14.093 16.8791C14.093 15.3081 15.3664 14.0346 16.9374 14.0346Z" fill="white"/>
</svg>
