<svg width="42" height="42" viewBox="0 0 42 42" fill="none" xmlns="http://www.w3.org/2000/svg">
<g clip-path="url(#clip0_88_138)">
<path d="M41.1897 21.2472C41.1897 9.90426 31.9945 0.708984 20.6515 0.708984C9.30856 0.708984 0.113281 9.90426 0.113281 21.2472C0.113281 32.5902 9.30856 41.7854 20.6515 41.7854C31.9945 41.7854 41.1897 32.5902 41.1897 21.2472Z" fill="white"/>
<path fill-rule="evenodd" clip-rule="evenodd" d="M15.5254 30.2197L18.6657 31.0527V29.9634L18.922 29.707H20.7162V31.8841H18.7938L16.4225 30.8572L15.5254 30.2197Z" fill="#CDBDB2"/>
<path fill-rule="evenodd" clip-rule="evenodd" d="M25.7793 30.2187L22.7031 31.0517V29.9624L22.4468 29.7061H20.6525V31.8848H22.5753L24.9463 30.8579L25.7793 30.2187Z" fill="#CDBDB2"/>
<path fill-rule="evenodd" clip-rule="evenodd" d="M18.9223 27.8477L18.666 29.9624L18.9864 29.706H22.3189L22.7034 29.9624L22.4471 27.8477L21.9345 27.5273L19.3713 27.5914L18.9223 27.8477Z" fill="#393939"/>
<path fill-rule="evenodd" clip-rule="evenodd" d="M17.1914 13.5566L18.7293 17.1455L19.4342 27.5912H21.9337L22.7026 17.1455L24.1124 13.5566H17.1914Z" fill="#F89C35"/>
<path fill-rule="evenodd" clip-rule="evenodd" d="M10.4622 21.438L8.66797 26.6288L13.1539 26.3725H16.0359V24.1297L15.9077 19.5156L15.2669 20.0283L10.4622 21.438Z" fill="#F89D35"/>
<path fill-rule="evenodd" clip-rule="evenodd" d="M13.8594 22.0156L19.1143 22.1438L18.5392 24.8355L16.0397 24.1947L13.8594 22.0156Z" fill="#D87C30"/>
<path fill-rule="evenodd" clip-rule="evenodd" d="M13.8594 22.0801L16.0364 24.1306V26.1824L13.8594 22.0801Z" fill="#EA8D3A"/>
<path fill-rule="evenodd" clip-rule="evenodd" d="M16.0371 24.1953L18.6003 24.8361L19.4333 27.5919L18.8582 27.9123L16.0383 26.2463L16.0371 24.1953Z" fill="#F89D35"/>
<path fill-rule="evenodd" clip-rule="evenodd" d="M16.038 26.2461L15.5254 30.2194L18.922 27.8485L16.038 26.2461Z" fill="#EB8F35"/>
<path fill-rule="evenodd" clip-rule="evenodd" d="M19.1134 22.1445L19.4338 27.5917L18.4727 24.8038L19.1134 22.1445Z" fill="#EA8E3A"/>
<path fill-rule="evenodd" clip-rule="evenodd" d="M13.0898 26.3102L16.0379 26.2461L15.5236 30.2194L13.0898 26.3102Z" fill="#D87C30"/>
<path fill-rule="evenodd" clip-rule="evenodd" d="M10.0797 31.9499L15.5268 30.2198L13.0918 26.3105L8.66992 26.6309L10.0797 31.9499Z" fill="#EB8F35"/>
<path fill-rule="evenodd" clip-rule="evenodd" d="M18.7298 17.1465L15.9744 19.4533L13.8594 22.0165L19.1143 22.2087L18.7298 17.1465Z" fill="#E8821E"/>
<path fill-rule="evenodd" clip-rule="evenodd" d="M15.5254 30.2186L18.922 27.8477L18.6657 29.8982V31.0516L16.3588 30.6031L15.5254 30.2186Z" fill="#DFCEC3"/>
<path fill-rule="evenodd" clip-rule="evenodd" d="M25.7793 30.2178L22.4468 27.8468L22.7031 29.8974V31.0508L25.0103 30.6022L25.7793 30.2178Z" fill="#DFCEC3"/>
<path fill-rule="evenodd" clip-rule="evenodd" d="M17.7033 23.2977L18.4082 24.7715L15.9087 24.1307L17.7033 23.2977Z" fill="#393939"/>
<path fill-rule="evenodd" clip-rule="evenodd" d="M10.0137 10.5449L18.7293 17.1455L17.2534 13.5587L10.0137 10.5449Z" fill="#E88F35"/>
<path fill-rule="evenodd" clip-rule="evenodd" d="M10.0148 10.5449L8.86133 14.0693L9.50212 17.9128L9.05357 18.1691L9.69436 18.7442L9.18172 19.196L9.8866 19.8368L9.43804 20.2213L10.465 21.5029L15.2709 20.0291C17.6207 18.1491 18.7743 17.1878 18.7316 17.1451C18.6889 17.1024 15.7833 14.9023 10.0148 10.5449Z" fill="#8E5A30"/>
<path fill-rule="evenodd" clip-rule="evenodd" d="M30.8425 21.44L32.6367 26.6309L28.1508 26.3745H25.2672V24.1318L25.3954 19.5177L26.0361 20.0303L30.8425 21.44Z" fill="#F89D35"/>
<path fill-rule="evenodd" clip-rule="evenodd" d="M27.4453 22.016L22.1904 22.1442L22.7671 24.8359L25.2683 24.1951L27.4453 22.016Z" fill="#D87C30"/>
<path fill-rule="evenodd" clip-rule="evenodd" d="M27.4453 22.0802L25.2683 24.1311V26.1816L27.4453 22.0802Z" fill="#EA8D3A"/>
<path fill-rule="evenodd" clip-rule="evenodd" d="M25.2676 24.1951L22.7044 24.8359L21.871 27.5917L22.4477 27.9121L25.2676 26.246V24.1951Z" fill="#F89D35"/>
<path fill-rule="evenodd" clip-rule="evenodd" d="M25.2667 26.2454L25.7793 30.2188L22.4468 27.9119L25.2667 26.2454Z" fill="#EB8F35"/>
<path fill-rule="evenodd" clip-rule="evenodd" d="M22.1912 22.1446L21.8708 27.5918L22.832 24.8039L22.1912 22.1446Z" fill="#EA8E3A"/>
<path fill-rule="evenodd" clip-rule="evenodd" d="M28.2148 26.3095L25.2668 26.2454L25.7798 30.2188L28.2148 26.3095Z" fill="#D87C30"/>
<path fill-rule="evenodd" clip-rule="evenodd" d="M31.227 31.9492L25.7798 30.2191L28.2148 26.3098L32.6367 26.6302L31.227 31.9492Z" fill="#EB8F35"/>
<path fill-rule="evenodd" clip-rule="evenodd" d="M22.5749 17.1463L25.3303 19.4532L27.4453 22.0167L22.1904 22.209L22.5749 17.1463Z" fill="#E8821E"/>
<path fill-rule="evenodd" clip-rule="evenodd" d="M23.6014 23.2969L22.8965 24.7707L25.396 24.1299L23.6014 23.2969Z" fill="#393939"/>
<path fill-rule="evenodd" clip-rule="evenodd" d="M31.291 10.5459L22.5754 17.1465L24.0496 13.5576L31.291 10.5459Z" fill="#E88F35"/>
<path fill-rule="evenodd" clip-rule="evenodd" d="M31.2899 10.5455L32.4434 14.0691L31.8026 17.9151L32.2511 18.1714L31.6103 18.7464L32.123 19.1971L31.4164 19.8378L31.8683 20.2223L30.8414 21.5039L26.0354 20.0301C23.6856 18.1502 22.532 17.1888 22.5747 17.1461C22.6175 17.1034 25.5225 14.9032 31.2899 10.5455Z" fill="#8E5A30"/>
</g>
<defs>
<clipPath id="clip0_88_138">
<rect width="41.0765" height="41.0765" fill="white" transform="translate(0.113281 0.708984)"/>
</clipPath>
</defs>
</svg>
