<svg width="33" height="33" viewBox="0 0 33 33" fill="none" xmlns="http://www.w3.org/2000/svg">
<path d="M28.9498 21.3852H25.711L26.0937 21.0346C26.345 20.7933 26.4919 20.4634 26.5031 20.1153C26.5142 19.7671 26.3887 19.4284 26.1533 19.1717C25.918 18.9149 25.5915 18.7604 25.2437 18.7412C24.8959 18.7221 24.5545 18.8398 24.2923 19.0691L21.3815 21.7359C21.1836 21.9175 21.045 22.1546 20.9841 22.4163C20.9232 22.6779 20.9427 22.9519 21.0402 23.2022C21.1376 23.4526 21.3084 23.6676 21.5301 23.8193C21.7519 23.9709 22.0143 24.052 22.2829 24.052H28.9498C29.3035 24.052 29.6426 23.9115 29.8927 23.6615C30.1427 23.4114 30.2832 23.0723 30.2832 22.7186C30.2832 22.365 30.1427 22.0258 29.8927 21.7758C29.6426 21.5257 29.3035 21.3852 28.9498 21.3852ZM28.9498 25.3854H22.2829C21.9293 25.3854 21.5901 25.5259 21.3401 25.7759C21.09 26.026 20.9495 26.3651 20.9495 26.7188C20.9495 27.0724 21.09 27.4116 21.3401 27.6616C21.5901 27.9117 21.9293 28.0522 22.2829 28.0522H25.5217L25.139 28.4028C24.8877 28.644 24.7408 28.974 24.7297 29.3221C24.7185 29.6703 24.8441 30.0089 25.0794 30.2657C25.3148 30.5225 25.6412 30.677 25.989 30.6962C26.3368 30.7153 26.6783 30.5976 26.9404 30.3682L29.8512 27.7015C30.0492 27.5199 30.1877 27.2828 30.2486 27.0211C30.3096 26.7595 30.29 26.4855 30.1926 26.2352C30.0952 25.9848 29.9244 25.7697 29.7026 25.6181C29.4809 25.4665 29.2185 25.3854 28.9498 25.3854ZM20.2655 16.0517C20.6895 15.4917 20.9495 14.805 20.9495 14.0516C20.9495 12.4409 19.8028 11.0955 18.2828 10.7848V10.7182C18.2828 10.3645 18.1423 10.0254 17.8922 9.77531C17.6422 9.52525 17.303 9.38477 16.9494 9.38477C16.5957 9.38477 16.2566 9.52525 16.0065 9.77531C15.7565 10.0254 15.616 10.3645 15.616 10.7182H14.2826C13.929 10.7182 13.5898 10.8586 13.3398 11.1087C13.0897 11.3587 12.9492 11.6979 12.9492 12.0515V20.0518C12.9492 20.4055 13.0897 20.7446 13.3398 20.9947C13.5898 21.2448 13.929 21.3852 14.2826 21.3852H15.6627C15.7129 21.691 15.8696 21.9692 16.105 22.1707C16.3405 22.3722 16.6395 22.4841 16.9494 22.4866C17.6267 22.4866 18.1628 21.9746 18.2494 21.3212C19.009 21.1742 19.6937 20.7677 20.1863 20.1712C20.679 19.5747 20.9488 18.8254 20.9495 18.0518C20.9495 17.2984 20.6895 16.6117 20.2655 16.0517ZM17.6161 18.7185H15.616V17.3851H17.6161C17.7929 17.3851 17.9625 17.4553 18.0875 17.5803C18.2125 17.7054 18.2828 17.875 18.2828 18.0518C18.2828 18.2286 18.2125 18.3982 18.0875 18.5232C17.9625 18.6482 17.7929 18.7185 17.6161 18.7185ZM17.6161 14.7183H15.616V13.3849H17.6161C17.7929 13.3849 17.9625 13.4552 18.0875 13.5802C18.2125 13.7052 18.2828 13.8748 18.2828 14.0516C18.2828 14.2284 18.2125 14.398 18.0875 14.523C17.9625 14.6481 17.7929 14.7183 17.6161 14.7183Z" fill="white"/>
<path d="M16.9497 25.3849C11.8028 25.3849 7.61599 21.1981 7.61599 16.0512C7.61599 10.9044 11.8028 6.71755 16.9497 6.71755C22.0966 6.71755 26.2834 10.9044 26.2834 16.0512C26.2834 16.4049 26.4239 16.744 26.6739 16.9941C26.924 17.2442 27.2631 17.3846 27.6168 17.3846C27.9704 17.3846 28.3096 17.2442 28.5596 16.9941C28.8097 16.744 28.9502 16.4049 28.9502 16.0512C28.9502 9.43366 23.5659 4.05078 16.9497 4.05078C10.3334 4.05078 4.94922 9.43366 4.94922 16.0512C4.94922 22.6688 10.3334 28.0517 16.9497 28.0517C17.3033 28.0517 17.6425 27.9112 17.8925 27.6612C18.1426 27.4111 18.2831 27.072 18.2831 26.7183C18.2831 26.3647 18.1426 26.0255 17.8925 25.7755C17.6425 25.5254 17.3033 25.3849 16.9497 25.3849Z" fill="white"/>
</svg>
