<svg width="19" height="19" viewBox="0 0 19 19" fill="none" xmlns="http://www.w3.org/2000/svg">
<g clip-path="url(#clip0_75_254)">
<path fill-rule="evenodd" clip-rule="evenodd" d="M17.1266 1.17672C17.3304 1.38045 17.3995 1.68287 17.3043 1.95481L12.0506 16.9548C11.949 17.2451 11.6803 17.4439 11.3728 17.4564C11.0654 17.469 10.7814 17.2927 10.6564 17.0117L7.77156 10.5253L1.28067 7.64241C0.999464 7.51752 0.823045 7.23374 0.835589 6.92648C0.848133 6.61922 1.0471 6.35075 1.33755 6.24916L16.3479 0.999158C16.6201 0.903979 16.9227 0.972994 17.1266 1.17672ZM9.23534 10.1232L11.2592 14.6737L14.801 4.56132L9.23534 10.1232ZM13.7396 3.50066L3.6202 7.04001L8.17394 9.06249L13.7396 3.50066Z" fill="white"/>
</g>
<defs>
<clipPath id="clip0_75_254">
<rect width="18.0125" height="18" fill="white" transform="translate(0.0839844 0.207031)"/>
</clipPath>
</defs>
</svg>
