<svg width="33" height="34" viewBox="0 0 33 34" fill="none" xmlns="http://www.w3.org/2000/svg">
<g clip-path="url(#clip0_114_382)">
<mask id="path-1-outside-1_114_382" maskUnits="userSpaceOnUse" x="1.50977" y="1.99023" width="29" height="31" fill="black">
<rect fill="white" x="1.50977" y="1.99023" width="29" height="31"/>
<path d="M27.0382 21.4445L25.7222 22.1375C25.7087 21.9205 25.6475 21.7071 25.5361 21.5094C25.1328 20.8275 24.2771 20.5938 23.5999 20.9731L22.9789 21.2951C22.962 21.0985 22.9042 20.9052 22.8029 20.7257C22.4171 20.0736 21.5987 19.8504 20.952 20.2126L19.5848 20.9215C19.5678 20.725 19.51 20.5318 19.4088 20.3522C19.023 19.6998 18.2047 19.4769 17.5582 19.8391L15.6526 20.827C13.0581 19.7116 11.3821 20.6902 9.48259 21.7992C8.81459 22.1895 8.12665 22.5909 7.33897 22.9476L6.64153 21.7278C6.58503 21.6291 6.49222 21.557 6.38315 21.5275C6.27422 21.4983 6.15803 21.5138 6.06047 21.5705L2.7224 23.5166C2.62465 23.5736 2.5534 23.6675 2.52428 23.7776C2.49509 23.8874 2.51028 24.0048 2.56665 24.1034L7.25197 32.2978C7.33084 32.4357 7.47372 32.5127 7.62072 32.5127C7.6929 32.5127 7.76597 32.4941 7.83297 32.4551L11.171 30.5092C11.2687 30.4523 11.34 30.3584 11.3692 30.2482C11.3984 30.1384 11.3832 30.021 11.3268 29.9225L10.68 28.7914C11.4096 28.4463 12.228 28.2774 13.1708 28.2774C13.1912 28.2774 13.2118 28.2776 13.2322 28.2776C14.407 28.2864 15.6424 28.5493 16.8372 28.8037C17.049 28.8489 17.26 28.8938 17.4702 28.9372C17.9006 29.0533 18.3391 29.1099 18.7677 29.1099C19.572 29.1099 20.3412 28.9098 20.9546 28.525L28.5171 24.0931C28.8677 23.8941 29.1203 23.5678 29.2285 23.1741C29.3368 22.7803 29.287 22.3691 29.0837 22.0083C28.6578 21.289 27.7553 21.0438 27.0382 21.4445ZM24.0001 21.7309C24.2807 21.5748 24.642 21.6727 24.8012 21.9419C24.877 22.0764 24.8957 22.2339 24.8542 22.3855C24.813 22.5354 24.7179 22.6595 24.5865 22.7357L21.6025 24.3071C21.5027 23.91 21.2588 23.5495 20.9228 23.3267L24.0001 21.7309ZM21.3522 20.9704C21.6072 20.828 21.9238 20.9141 22.0682 21.1584C22.1358 21.2782 22.1526 21.4188 22.1154 21.5539C22.0784 21.6883 21.993 21.7995 21.875 21.8676L19.9187 22.8819C19.8962 22.8726 19.8738 22.8635 19.851 22.8541C19.5013 22.7108 19.0843 22.5397 18.6695 22.3615L21.3522 20.9704ZM17.9583 20.5969C18.209 20.457 18.5321 20.5447 18.674 20.7849C18.7416 20.9047 18.7584 21.0453 18.7213 21.1807C18.6846 21.3143 18.6 21.4246 18.483 21.4927L17.6744 21.912C17.38 21.7694 17.1253 21.6335 16.9483 21.5155C16.8288 21.4406 16.7113 21.3704 16.5955 21.3036L17.9583 20.5969ZM7.77597 31.4964L3.51609 24.046L6.11747 22.5293L6.72615 23.5939C6.73147 23.6181 6.73847 23.6422 6.74822 23.6658C6.7729 23.7261 6.8099 23.7774 6.85465 23.8186L10.3774 29.98L7.77597 31.4964ZM28.4088 22.9445C28.3617 23.1163 28.2521 23.2584 28.0952 23.3472L20.5167 27.7888C19.3937 28.4931 18.0606 28.2085 17.6787 28.1044C17.6703 28.1022 17.6618 28.1002 17.6532 28.0984C17.4406 28.0544 17.227 28.009 17.0126 27.9633C15.7768 27.7001 14.4987 27.4281 13.2384 27.4188C12.1087 27.4086 11.1313 27.6156 10.2534 28.0453L7.76584 23.6945C8.56572 23.3257 9.27328 22.9139 9.9084 22.543C11.8338 21.4183 13.1878 20.6273 15.4553 21.6724C15.4763 21.6847 15.4983 21.6949 15.5211 21.7034C15.8263 21.8478 16.148 22.0247 16.4898 22.2386C16.7378 22.4042 17.1 22.5917 17.5096 22.7835C17.5118 22.7845 17.5139 22.7856 17.5162 22.7866C18.1572 23.0865 18.9133 23.3967 19.5308 23.65C19.8313 23.7731 20.0979 23.8825 20.2985 23.9691C20.3087 23.9733 20.319 23.9774 20.3295 23.9811C20.6588 24.0934 20.8798 24.5425 20.7759 24.8876C20.7757 24.8883 20.7757 24.8889 20.7755 24.8895C20.7751 24.8909 20.7745 24.8921 20.7742 24.8934C20.721 25.0788 20.5651 25.2591 20.3672 25.3643C20.1897 25.4581 20.0061 25.4808 19.8422 25.4259L15.5644 24.088C15.3399 24.0176 15.102 24.1446 15.0322 24.3711C14.9628 24.5978 15.0883 24.8382 15.3127 24.9084L19.5817 26.2436C19.7245 26.2918 19.8734 26.3155 20.0242 26.3155C20.2716 26.3155 20.5239 26.2513 20.7627 26.1248C21.1084 25.9415 21.3777 25.6533 21.5242 25.3174L27.4409 22.201C27.7636 22.0218 28.1645 22.1299 28.3488 22.441C28.4347 22.5937 28.4561 22.7725 28.4088 22.9445ZM6.42747 13.2162C6.42747 16.6076 9.16003 19.367 12.5187 19.367C15.363 19.367 17.8101 17.3689 18.4476 14.6273C19.2748 15.0522 20.2102 15.2921 21.2002 15.2921C24.559 15.2921 27.2917 12.5328 27.2917 9.14101C27.2917 5.74959 24.559 2.99023 21.2002 2.99023C18.3228 2.99023 15.9052 5.01552 15.2713 7.7283C14.4219 7.29326 13.4818 7.0653 12.5187 7.0653C9.16003 7.06536 6.42747 9.82471 6.42747 13.2162ZM21.2002 3.84914C24.09 3.84914 26.441 6.22318 26.441 9.14108C26.441 12.0592 24.09 14.4333 21.2002 14.4333C18.3106 14.4333 15.9598 12.0592 15.9598 9.14108C15.9597 6.22318 18.3105 3.84914 21.2002 3.84914ZM17.6767 14.156C17.2337 16.6545 15.0602 18.5081 12.5187 18.5081C9.62903 18.5081 7.27822 16.134 7.27822 13.2161C7.27822 10.2982 9.62903 7.92414 12.5187 7.92414C13.4407 7.92414 14.3378 8.16731 15.1303 8.62791C15.1164 8.79717 15.109 8.96821 15.109 9.14095C15.109 11.208 16.1238 13.0401 17.6767 14.156Z"/>
</mask>
<path d="M27.0382 21.4445L25.7222 22.1375C25.7087 21.9205 25.6475 21.7071 25.5361 21.5094C25.1328 20.8275 24.2771 20.5938 23.5999 20.9731L22.9789 21.2951C22.962 21.0985 22.9042 20.9052 22.8029 20.7257C22.4171 20.0736 21.5987 19.8504 20.952 20.2126L19.5848 20.9215C19.5678 20.725 19.51 20.5318 19.4088 20.3522C19.023 19.6998 18.2047 19.4769 17.5582 19.8391L15.6526 20.827C13.0581 19.7116 11.3821 20.6902 9.48259 21.7992C8.81459 22.1895 8.12665 22.5909 7.33897 22.9476L6.64153 21.7278C6.58503 21.6291 6.49222 21.557 6.38315 21.5275C6.27422 21.4983 6.15803 21.5138 6.06047 21.5705L2.7224 23.5166C2.62465 23.5736 2.5534 23.6675 2.52428 23.7776C2.49509 23.8874 2.51028 24.0048 2.56665 24.1034L7.25197 32.2978C7.33084 32.4357 7.47372 32.5127 7.62072 32.5127C7.6929 32.5127 7.76597 32.4941 7.83297 32.4551L11.171 30.5092C11.2687 30.4523 11.34 30.3584 11.3692 30.2482C11.3984 30.1384 11.3832 30.021 11.3268 29.9225L10.68 28.7914C11.4096 28.4463 12.228 28.2774 13.1708 28.2774C13.1912 28.2774 13.2118 28.2776 13.2322 28.2776C14.407 28.2864 15.6424 28.5493 16.8372 28.8037C17.049 28.8489 17.26 28.8938 17.4702 28.9372C17.9006 29.0533 18.3391 29.1099 18.7677 29.1099C19.572 29.1099 20.3412 28.9098 20.9546 28.525L28.5171 24.0931C28.8677 23.8941 29.1203 23.5678 29.2285 23.1741C29.3368 22.7803 29.287 22.3691 29.0837 22.0083C28.6578 21.289 27.7553 21.0438 27.0382 21.4445ZM24.0001 21.7309C24.2807 21.5748 24.642 21.6727 24.8012 21.9419C24.877 22.0764 24.8957 22.2339 24.8542 22.3855C24.813 22.5354 24.7179 22.6595 24.5865 22.7357L21.6025 24.3071C21.5027 23.91 21.2588 23.5495 20.9228 23.3267L24.0001 21.7309ZM21.3522 20.9704C21.6072 20.828 21.9238 20.9141 22.0682 21.1584C22.1358 21.2782 22.1526 21.4188 22.1154 21.5539C22.0784 21.6883 21.993 21.7995 21.875 21.8676L19.9187 22.8819C19.8962 22.8726 19.8738 22.8635 19.851 22.8541C19.5013 22.7108 19.0843 22.5397 18.6695 22.3615L21.3522 20.9704ZM17.9583 20.5969C18.209 20.457 18.5321 20.5447 18.674 20.7849C18.7416 20.9047 18.7584 21.0453 18.7213 21.1807C18.6846 21.3143 18.6 21.4246 18.483 21.4927L17.6744 21.912C17.38 21.7694 17.1253 21.6335 16.9483 21.5155C16.8288 21.4406 16.7113 21.3704 16.5955 21.3036L17.9583 20.5969ZM7.77597 31.4964L3.51609 24.046L6.11747 22.5293L6.72615 23.5939C6.73147 23.6181 6.73847 23.6422 6.74822 23.6658C6.7729 23.7261 6.8099 23.7774 6.85465 23.8186L10.3774 29.98L7.77597 31.4964ZM28.4088 22.9445C28.3617 23.1163 28.2521 23.2584 28.0952 23.3472L20.5167 27.7888C19.3937 28.4931 18.0606 28.2085 17.6787 28.1044C17.6703 28.1022 17.6618 28.1002 17.6532 28.0984C17.4406 28.0544 17.227 28.009 17.0126 27.9633C15.7768 27.7001 14.4987 27.4281 13.2384 27.4188C12.1087 27.4086 11.1313 27.6156 10.2534 28.0453L7.76584 23.6945C8.56572 23.3257 9.27328 22.9139 9.9084 22.543C11.8338 21.4183 13.1878 20.6273 15.4553 21.6724C15.4763 21.6847 15.4983 21.6949 15.5211 21.7034C15.8263 21.8478 16.148 22.0247 16.4898 22.2386C16.7378 22.4042 17.1 22.5917 17.5096 22.7835C17.5118 22.7845 17.5139 22.7856 17.5162 22.7866C18.1572 23.0865 18.9133 23.3967 19.5308 23.65C19.8313 23.7731 20.0979 23.8825 20.2985 23.9691C20.3087 23.9733 20.319 23.9774 20.3295 23.9811C20.6588 24.0934 20.8798 24.5425 20.7759 24.8876C20.7757 24.8883 20.7757 24.8889 20.7755 24.8895C20.7751 24.8909 20.7745 24.8921 20.7742 24.8934C20.721 25.0788 20.5651 25.2591 20.3672 25.3643C20.1897 25.4581 20.0061 25.4808 19.8422 25.4259L15.5644 24.088C15.3399 24.0176 15.102 24.1446 15.0322 24.3711C14.9628 24.5978 15.0883 24.8382 15.3127 24.9084L19.5817 26.2436C19.7245 26.2918 19.8734 26.3155 20.0242 26.3155C20.2716 26.3155 20.5239 26.2513 20.7627 26.1248C21.1084 25.9415 21.3777 25.6533 21.5242 25.3174L27.4409 22.201C27.7636 22.0218 28.1645 22.1299 28.3488 22.441C28.4347 22.5937 28.4561 22.7725 28.4088 22.9445ZM6.42747 13.2162C6.42747 16.6076 9.16003 19.367 12.5187 19.367C15.363 19.367 17.8101 17.3689 18.4476 14.6273C19.2748 15.0522 20.2102 15.2921 21.2002 15.2921C24.559 15.2921 27.2917 12.5328 27.2917 9.14101C27.2917 5.74959 24.559 2.99023 21.2002 2.99023C18.3228 2.99023 15.9052 5.01552 15.2713 7.7283C14.4219 7.29326 13.4818 7.0653 12.5187 7.0653C9.16003 7.06536 6.42747 9.82471 6.42747 13.2162ZM21.2002 3.84914C24.09 3.84914 26.441 6.22318 26.441 9.14108C26.441 12.0592 24.09 14.4333 21.2002 14.4333C18.3106 14.4333 15.9598 12.0592 15.9598 9.14108C15.9597 6.22318 18.3105 3.84914 21.2002 3.84914ZM17.6767 14.156C17.2337 16.6545 15.0602 18.5081 12.5187 18.5081C9.62903 18.5081 7.27822 16.134 7.27822 13.2161C7.27822 10.2982 9.62903 7.92414 12.5187 7.92414C13.4407 7.92414 14.3378 8.16731 15.1303 8.62791C15.1164 8.79717 15.109 8.96821 15.109 9.14095C15.109 11.208 16.1238 13.0401 17.6767 14.156Z" fill="white"/>
<path d="M27.0382 21.4445L25.7222 22.1375C25.7087 21.9205 25.6475 21.7071 25.5361 21.5094C25.1328 20.8275 24.2771 20.5938 23.5999 20.9731L22.9789 21.2951C22.962 21.0985 22.9042 20.9052 22.8029 20.7257C22.4171 20.0736 21.5987 19.8504 20.952 20.2126L19.5848 20.9215C19.5678 20.725 19.51 20.5318 19.4088 20.3522C19.023 19.6998 18.2047 19.4769 17.5582 19.8391L15.6526 20.827C13.0581 19.7116 11.3821 20.6902 9.48259 21.7992C8.81459 22.1895 8.12665 22.5909 7.33897 22.9476L6.64153 21.7278C6.58503 21.6291 6.49222 21.557 6.38315 21.5275C6.27422 21.4983 6.15803 21.5138 6.06047 21.5705L2.7224 23.5166C2.62465 23.5736 2.5534 23.6675 2.52428 23.7776C2.49509 23.8874 2.51028 24.0048 2.56665 24.1034L7.25197 32.2978C7.33084 32.4357 7.47372 32.5127 7.62072 32.5127C7.6929 32.5127 7.76597 32.4941 7.83297 32.4551L11.171 30.5092C11.2687 30.4523 11.34 30.3584 11.3692 30.2482C11.3984 30.1384 11.3832 30.021 11.3268 29.9225L10.68 28.7914C11.4096 28.4463 12.228 28.2774 13.1708 28.2774C13.1912 28.2774 13.2118 28.2776 13.2322 28.2776C14.407 28.2864 15.6424 28.5493 16.8372 28.8037C17.049 28.8489 17.26 28.8938 17.4702 28.9372C17.9006 29.0533 18.3391 29.1099 18.7677 29.1099C19.572 29.1099 20.3412 28.9098 20.9546 28.525L28.5171 24.0931C28.8677 23.8941 29.1203 23.5678 29.2285 23.1741C29.3368 22.7803 29.287 22.3691 29.0837 22.0083C28.6578 21.289 27.7553 21.0438 27.0382 21.4445ZM24.0001 21.7309C24.2807 21.5748 24.642 21.6727 24.8012 21.9419C24.877 22.0764 24.8957 22.2339 24.8542 22.3855C24.813 22.5354 24.7179 22.6595 24.5865 22.7357L21.6025 24.3071C21.5027 23.91 21.2588 23.5495 20.9228 23.3267L24.0001 21.7309ZM21.3522 20.9704C21.6072 20.828 21.9238 20.9141 22.0682 21.1584C22.1358 21.2782 22.1526 21.4188 22.1154 21.5539C22.0784 21.6883 21.993 21.7995 21.875 21.8676L19.9187 22.8819C19.8962 22.8726 19.8738 22.8635 19.851 22.8541C19.5013 22.7108 19.0843 22.5397 18.6695 22.3615L21.3522 20.9704ZM17.9583 20.5969C18.209 20.457 18.5321 20.5447 18.674 20.7849C18.7416 20.9047 18.7584 21.0453 18.7213 21.1807C18.6846 21.3143 18.6 21.4246 18.483 21.4927L17.6744 21.912C17.38 21.7694 17.1253 21.6335 16.9483 21.5155C16.8288 21.4406 16.7113 21.3704 16.5955 21.3036L17.9583 20.5969ZM7.77597 31.4964L3.51609 24.046L6.11747 22.5293L6.72615 23.5939C6.73147 23.6181 6.73847 23.6422 6.74822 23.6658C6.7729 23.7261 6.8099 23.7774 6.85465 23.8186L10.3774 29.98L7.77597 31.4964ZM28.4088 22.9445C28.3617 23.1163 28.2521 23.2584 28.0952 23.3472L20.5167 27.7888C19.3937 28.4931 18.0606 28.2085 17.6787 28.1044C17.6703 28.1022 17.6618 28.1002 17.6532 28.0984C17.4406 28.0544 17.227 28.009 17.0126 27.9633C15.7768 27.7001 14.4987 27.4281 13.2384 27.4188C12.1087 27.4086 11.1313 27.6156 10.2534 28.0453L7.76584 23.6945C8.56572 23.3257 9.27328 22.9139 9.9084 22.543C11.8338 21.4183 13.1878 20.6273 15.4553 21.6724C15.4763 21.6847 15.4983 21.6949 15.5211 21.7034C15.8263 21.8478 16.148 22.0247 16.4898 22.2386C16.7378 22.4042 17.1 22.5917 17.5096 22.7835C17.5118 22.7845 17.5139 22.7856 17.5162 22.7866C18.1572 23.0865 18.9133 23.3967 19.5308 23.65C19.8313 23.7731 20.0979 23.8825 20.2985 23.9691C20.3087 23.9733 20.319 23.9774 20.3295 23.9811C20.6588 24.0934 20.8798 24.5425 20.7759 24.8876C20.7757 24.8883 20.7757 24.8889 20.7755 24.8895C20.7751 24.8909 20.7745 24.8921 20.7742 24.8934C20.721 25.0788 20.5651 25.2591 20.3672 25.3643C20.1897 25.4581 20.0061 25.4808 19.8422 25.4259L15.5644 24.088C15.3399 24.0176 15.102 24.1446 15.0322 24.3711C14.9628 24.5978 15.0883 24.8382 15.3127 24.9084L19.5817 26.2436C19.7245 26.2918 19.8734 26.3155 20.0242 26.3155C20.2716 26.3155 20.5239 26.2513 20.7627 26.1248C21.1084 25.9415 21.3777 25.6533 21.5242 25.3174L27.4409 22.201C27.7636 22.0218 28.1645 22.1299 28.3488 22.441C28.4347 22.5937 28.4561 22.7725 28.4088 22.9445ZM6.42747 13.2162C6.42747 16.6076 9.16003 19.367 12.5187 19.367C15.363 19.367 17.8101 17.3689 18.4476 14.6273C19.2748 15.0522 20.2102 15.2921 21.2002 15.2921C24.559 15.2921 27.2917 12.5328 27.2917 9.14101C27.2917 5.74959 24.559 2.99023 21.2002 2.99023C18.3228 2.99023 15.9052 5.01552 15.2713 7.7283C14.4219 7.29326 13.4818 7.0653 12.5187 7.0653C9.16003 7.06536 6.42747 9.82471 6.42747 13.2162ZM21.2002 3.84914C24.09 3.84914 26.441 6.22318 26.441 9.14108C26.441 12.0592 24.09 14.4333 21.2002 14.4333C18.3106 14.4333 15.9598 12.0592 15.9598 9.14108C15.9597 6.22318 18.3105 3.84914 21.2002 3.84914ZM17.6767 14.156C17.2337 16.6545 15.0602 18.5081 12.5187 18.5081C9.62903 18.5081 7.27822 16.134 7.27822 13.2161C7.27822 10.2982 9.62903 7.92414 12.5187 7.92414C13.4407 7.92414 14.3378 8.16731 15.1303 8.62791C15.1164 8.79717 15.109 8.96821 15.109 9.14095C15.109 11.208 16.1238 13.0401 17.6767 14.156Z" stroke="white" stroke-width="0.6" mask="url(#path-1-outside-1_114_382)"/>
<mask id="path-2-outside-2_114_382" maskUnits="userSpaceOnUse" x="0.546875" y="0.587891" width="32" height="20" fill="black">
<rect fill="white" x="0.546875" y="0.587891" width="32" height="20"/>
<path d="M12.5184 10.6467C13.3727 10.6467 14.0944 11.1368 14.0944 11.7167C14.0944 11.9539 14.2849 12.1461 14.5198 12.1461C14.7547 12.1461 14.9341 11.9539 14.9341 11.7167C14.9341 10.7685 14.1091 9.97848 12.9216 9.81805V8.99657C12.9216 8.75939 12.7503 8.56715 12.5154 8.56715C12.2805 8.56715 12.1091 8.75939 12.1091 8.99657V9.81805C10.9841 9.97841 10.0994 10.7685 10.0994 11.7167C10.0994 13.2215 11.4556 13.4629 12.4488 13.6392C13.5959 13.8429 14.0965 14.0061 14.0965 14.7155C14.0965 15.2955 13.3738 15.7856 12.5194 15.7856C11.6649 15.7856 10.9426 15.2955 10.9426 14.7155C10.9426 14.4784 10.7519 14.2861 10.517 14.2861C10.2821 14.2861 10.0996 14.4784 10.0996 14.7155C10.0996 15.6637 10.9842 16.4538 12.1092 16.6142V17.4357C12.1092 17.6729 12.2806 17.8651 12.5154 17.8651C12.7503 17.8651 12.9217 17.6729 12.9217 17.4357V16.6142C14.1092 16.4538 14.9342 15.6637 14.9342 14.7155C14.9342 13.2107 13.5796 12.9696 12.5865 12.7934C11.4393 12.5896 10.9394 12.4264 10.9394 11.7167C10.9393 11.1368 11.6639 10.6467 12.5184 10.6467ZM21.1996 11.7105C20.3454 11.7105 19.6238 11.2207 19.6238 10.6407C19.6238 10.4035 19.4333 10.2112 19.1984 10.2112C18.9636 10.2112 18.7843 10.4035 18.7843 10.6407C18.7843 11.5889 19.6091 12.3788 20.7966 12.5392V13.3606C20.7966 13.5978 20.968 13.79 21.2029 13.79C21.4378 13.79 21.6091 13.5978 21.6091 13.3606V12.5392C22.7341 12.3788 23.6188 11.5889 23.6188 10.6407C23.6188 9.13592 22.2626 8.89452 21.2696 8.71824C20.1225 8.51451 19.6219 8.3513 19.6219 7.64166C19.6219 7.06172 20.3445 6.57184 21.1987 6.57184C22.0532 6.57184 22.7755 7.06172 22.7755 7.64166C22.7755 7.87884 22.9663 8.07115 23.2011 8.07115C23.436 8.07115 23.6187 7.87884 23.6187 7.64166C23.6187 6.69352 22.7342 5.9036 21.6092 5.74323V4.92176C21.6092 4.68458 21.4378 4.49234 21.2029 4.49234C20.9681 4.49234 20.7967 4.68458 20.7967 4.92176V5.74323C19.6092 5.90367 18.7843 6.69352 18.7843 7.64166C18.7843 9.14646 20.1388 9.38787 21.1319 9.56414C22.279 9.76787 22.7789 9.93108 22.7789 10.6407C22.7788 11.2207 22.0541 11.7105 21.1996 11.7105ZM31.9246 15.7012C31.6319 15.5644 31.3796 15.4503 31.1607 15.3509C29.8706 14.7669 29.8706 14.7669 29.285 13.4407C29.1912 13.228 29.0839 12.9791 28.9569 12.6996C28.8876 12.547 28.7369 12.4432 28.5709 12.4432C28.5707 12.4432 28.5704 12.4432 28.5702 12.4432C28.4044 12.4432 28.2538 12.546 28.1841 12.698C28.0488 12.9936 27.9356 13.2511 27.8374 13.4725C27.2589 14.7751 27.2589 14.7765 25.9453 15.3679C25.7349 15.4625 25.4943 15.5716 25.2175 15.6997C25.0666 15.7696 24.9696 15.922 24.9693 16.0897C24.969 16.2575 25.0654 16.4102 25.2161 16.4804C25.5089 16.6172 25.7611 16.7314 25.98 16.8305C27.2699 17.4145 27.2699 17.4145 27.8554 18.7407C27.9493 18.9534 28.0566 19.1838 28.1836 19.4633C28.2528 19.6159 28.4035 19.7011 28.5695 19.7011C28.5698 19.7011 28.57 19.7011 28.5703 19.7011C28.736 19.7011 28.8867 19.6169 28.9563 19.4649C29.0917 19.1693 29.2048 18.9211 29.3031 18.6999C29.8815 17.3973 29.8815 17.4006 31.1952 16.8092C31.4058 16.7146 31.6463 16.6078 31.9232 16.4798C32.0741 16.4099 32.1711 16.2586 32.1714 16.0908C32.1717 15.9231 32.0753 15.7713 31.9246 15.7012ZM28.5717 18.2543C27.9495 16.8532 27.8154 16.7231 26.428 16.0924C27.8153 15.464 27.9441 15.3285 28.5688 13.9273C29.1911 15.3284 29.3251 15.4585 30.7126 16.0894C29.3253 16.7177 29.1964 16.8532 28.5717 18.2543ZM4.43325 7.87487C4.52706 8.0873 4.63438 8.32303 4.76138 8.60262C4.83063 8.75516 4.98131 8.84586 5.14731 8.84586C5.14756 8.84586 5.14781 8.84586 5.14806 8.84586C5.31381 8.84586 5.4645 8.75624 5.53413 8.6042C5.6695 8.30851 5.78263 8.05764 5.88075 7.83618C6.45906 6.53391 6.45906 6.5358 7.77275 5.94437C7.98325 5.84977 8.22381 5.74235 8.50075 5.61423C8.65169 5.54437 8.74863 5.39277 8.749 5.22501C8.74925 5.05726 8.65281 4.90516 8.50213 4.83479C8.20938 4.69796 7.95719 4.58392 7.73813 4.48458C6.44813 3.90034 6.44813 3.9004 5.8625 2.57396C5.76881 2.36153 5.6615 2.11842 5.53463 1.83883C5.46563 1.68616 5.31494 1.58789 5.14881 1.58789C5.14856 1.58789 5.14831 1.58789 5.14806 1.58789C4.98231 1.58789 4.83163 1.68521 4.762 1.83725C4.62663 2.13287 4.5135 2.38759 4.41525 2.6088C3.83681 3.91132 3.83681 3.91132 2.523 4.50307C2.31256 4.59767 2.072 4.70604 1.79513 4.83416C1.64419 4.90409 1.54725 5.05619 1.54688 5.22394C1.54663 5.3917 1.64306 5.54424 1.79375 5.61442C2.0865 5.75125 2.33869 5.86536 2.55775 5.96451C3.84769 6.54868 3.84769 6.54868 4.43325 7.87487ZM5.14656 3.06126C5.76863 4.46217 5.903 4.59225 7.29013 5.22318C5.90288 5.85135 5.77406 5.98685 5.14944 7.3877C4.52725 5.98685 4.39313 5.85677 3.00569 5.22609C4.39306 4.59767 4.52181 4.46217 5.14656 3.06126Z"/>
</mask>
<path d="M12.5184 10.6467C13.3727 10.6467 14.0944 11.1368 14.0944 11.7167C14.0944 11.9539 14.2849 12.1461 14.5198 12.1461C14.7547 12.1461 14.9341 11.9539 14.9341 11.7167C14.9341 10.7685 14.1091 9.97848 12.9216 9.81805V8.99657C12.9216 8.75939 12.7503 8.56715 12.5154 8.56715C12.2805 8.56715 12.1091 8.75939 12.1091 8.99657V9.81805C10.9841 9.97841 10.0994 10.7685 10.0994 11.7167C10.0994 13.2215 11.4556 13.4629 12.4488 13.6392C13.5959 13.8429 14.0965 14.0061 14.0965 14.7155C14.0965 15.2955 13.3738 15.7856 12.5194 15.7856C11.6649 15.7856 10.9426 15.2955 10.9426 14.7155C10.9426 14.4784 10.7519 14.2861 10.517 14.2861C10.2821 14.2861 10.0996 14.4784 10.0996 14.7155C10.0996 15.6637 10.9842 16.4538 12.1092 16.6142V17.4357C12.1092 17.6729 12.2806 17.8651 12.5154 17.8651C12.7503 17.8651 12.9217 17.6729 12.9217 17.4357V16.6142C14.1092 16.4538 14.9342 15.6637 14.9342 14.7155C14.9342 13.2107 13.5796 12.9696 12.5865 12.7934C11.4393 12.5896 10.9394 12.4264 10.9394 11.7167C10.9393 11.1368 11.6639 10.6467 12.5184 10.6467ZM21.1996 11.7105C20.3454 11.7105 19.6238 11.2207 19.6238 10.6407C19.6238 10.4035 19.4333 10.2112 19.1984 10.2112C18.9636 10.2112 18.7843 10.4035 18.7843 10.6407C18.7843 11.5889 19.6091 12.3788 20.7966 12.5392V13.3606C20.7966 13.5978 20.968 13.79 21.2029 13.79C21.4378 13.79 21.6091 13.5978 21.6091 13.3606V12.5392C22.7341 12.3788 23.6188 11.5889 23.6188 10.6407C23.6188 9.13592 22.2626 8.89452 21.2696 8.71824C20.1225 8.51451 19.6219 8.3513 19.6219 7.64166C19.6219 7.06172 20.3445 6.57184 21.1987 6.57184C22.0532 6.57184 22.7755 7.06172 22.7755 7.64166C22.7755 7.87884 22.9663 8.07115 23.2011 8.07115C23.436 8.07115 23.6187 7.87884 23.6187 7.64166C23.6187 6.69352 22.7342 5.9036 21.6092 5.74323V4.92176C21.6092 4.68458 21.4378 4.49234 21.2029 4.49234C20.9681 4.49234 20.7967 4.68458 20.7967 4.92176V5.74323C19.6092 5.90367 18.7843 6.69352 18.7843 7.64166C18.7843 9.14646 20.1388 9.38787 21.1319 9.56414C22.279 9.76787 22.7789 9.93108 22.7789 10.6407C22.7788 11.2207 22.0541 11.7105 21.1996 11.7105ZM31.9246 15.7012C31.6319 15.5644 31.3796 15.4503 31.1607 15.3509C29.8706 14.7669 29.8706 14.7669 29.285 13.4407C29.1912 13.228 29.0839 12.9791 28.9569 12.6996C28.8876 12.547 28.7369 12.4432 28.5709 12.4432C28.5707 12.4432 28.5704 12.4432 28.5702 12.4432C28.4044 12.4432 28.2538 12.546 28.1841 12.698C28.0488 12.9936 27.9356 13.2511 27.8374 13.4725C27.2589 14.7751 27.2589 14.7765 25.9453 15.3679C25.7349 15.4625 25.4943 15.5716 25.2175 15.6997C25.0666 15.7696 24.9696 15.922 24.9693 16.0897C24.969 16.2575 25.0654 16.4102 25.2161 16.4804C25.5089 16.6172 25.7611 16.7314 25.98 16.8305C27.2699 17.4145 27.2699 17.4145 27.8554 18.7407C27.9493 18.9534 28.0566 19.1838 28.1836 19.4633C28.2528 19.6159 28.4035 19.7011 28.5695 19.7011C28.5698 19.7011 28.57 19.7011 28.5703 19.7011C28.736 19.7011 28.8867 19.6169 28.9563 19.4649C29.0917 19.1693 29.2048 18.9211 29.3031 18.6999C29.8815 17.3973 29.8815 17.4006 31.1952 16.8092C31.4058 16.7146 31.6463 16.6078 31.9232 16.4798C32.0741 16.4099 32.1711 16.2586 32.1714 16.0908C32.1717 15.9231 32.0753 15.7713 31.9246 15.7012ZM28.5717 18.2543C27.9495 16.8532 27.8154 16.7231 26.428 16.0924C27.8153 15.464 27.9441 15.3285 28.5688 13.9273C29.1911 15.3284 29.3251 15.4585 30.7126 16.0894C29.3253 16.7177 29.1964 16.8532 28.5717 18.2543ZM4.43325 7.87487C4.52706 8.0873 4.63438 8.32303 4.76138 8.60262C4.83063 8.75516 4.98131 8.84586 5.14731 8.84586C5.14756 8.84586 5.14781 8.84586 5.14806 8.84586C5.31381 8.84586 5.4645 8.75624 5.53413 8.6042C5.6695 8.30851 5.78263 8.05764 5.88075 7.83618C6.45906 6.53391 6.45906 6.5358 7.77275 5.94437C7.98325 5.84977 8.22381 5.74235 8.50075 5.61423C8.65169 5.54437 8.74863 5.39277 8.749 5.22501C8.74925 5.05726 8.65281 4.90516 8.50213 4.83479C8.20938 4.69796 7.95719 4.58392 7.73813 4.48458C6.44813 3.90034 6.44813 3.9004 5.8625 2.57396C5.76881 2.36153 5.6615 2.11842 5.53463 1.83883C5.46563 1.68616 5.31494 1.58789 5.14881 1.58789C5.14856 1.58789 5.14831 1.58789 5.14806 1.58789C4.98231 1.58789 4.83163 1.68521 4.762 1.83725C4.62663 2.13287 4.5135 2.38759 4.41525 2.6088C3.83681 3.91132 3.83681 3.91132 2.523 4.50307C2.31256 4.59767 2.072 4.70604 1.79513 4.83416C1.64419 4.90409 1.54725 5.05619 1.54688 5.22394C1.54663 5.3917 1.64306 5.54424 1.79375 5.61442C2.0865 5.75125 2.33869 5.86536 2.55775 5.96451C3.84769 6.54868 3.84769 6.54868 4.43325 7.87487ZM5.14656 3.06126C5.76863 4.46217 5.903 4.59225 7.29013 5.22318C5.90288 5.85135 5.77406 5.98685 5.14944 7.3877C4.52725 5.98685 4.39313 5.85677 3.00569 5.22609C4.39306 4.59767 4.52181 4.46217 5.14656 3.06126Z" fill="white"/>
<path d="M12.5184 10.6467C13.3727 10.6467 14.0944 11.1368 14.0944 11.7167C14.0944 11.9539 14.2849 12.1461 14.5198 12.1461C14.7547 12.1461 14.9341 11.9539 14.9341 11.7167C14.9341 10.7685 14.1091 9.97848 12.9216 9.81805V8.99657C12.9216 8.75939 12.7503 8.56715 12.5154 8.56715C12.2805 8.56715 12.1091 8.75939 12.1091 8.99657V9.81805C10.9841 9.97841 10.0994 10.7685 10.0994 11.7167C10.0994 13.2215 11.4556 13.4629 12.4488 13.6392C13.5959 13.8429 14.0965 14.0061 14.0965 14.7155C14.0965 15.2955 13.3738 15.7856 12.5194 15.7856C11.6649 15.7856 10.9426 15.2955 10.9426 14.7155C10.9426 14.4784 10.7519 14.2861 10.517 14.2861C10.2821 14.2861 10.0996 14.4784 10.0996 14.7155C10.0996 15.6637 10.9842 16.4538 12.1092 16.6142V17.4357C12.1092 17.6729 12.2806 17.8651 12.5154 17.8651C12.7503 17.8651 12.9217 17.6729 12.9217 17.4357V16.6142C14.1092 16.4538 14.9342 15.6637 14.9342 14.7155C14.9342 13.2107 13.5796 12.9696 12.5865 12.7934C11.4393 12.5896 10.9394 12.4264 10.9394 11.7167C10.9393 11.1368 11.6639 10.6467 12.5184 10.6467ZM21.1996 11.7105C20.3454 11.7105 19.6238 11.2207 19.6238 10.6407C19.6238 10.4035 19.4333 10.2112 19.1984 10.2112C18.9636 10.2112 18.7843 10.4035 18.7843 10.6407C18.7843 11.5889 19.6091 12.3788 20.7966 12.5392V13.3606C20.7966 13.5978 20.968 13.79 21.2029 13.79C21.4378 13.79 21.6091 13.5978 21.6091 13.3606V12.5392C22.7341 12.3788 23.6188 11.5889 23.6188 10.6407C23.6188 9.13592 22.2626 8.89452 21.2696 8.71824C20.1225 8.51451 19.6219 8.3513 19.6219 7.64166C19.6219 7.06172 20.3445 6.57184 21.1987 6.57184C22.0532 6.57184 22.7755 7.06172 22.7755 7.64166C22.7755 7.87884 22.9663 8.07115 23.2011 8.07115C23.436 8.07115 23.6187 7.87884 23.6187 7.64166C23.6187 6.69352 22.7342 5.9036 21.6092 5.74323V4.92176C21.6092 4.68458 21.4378 4.49234 21.2029 4.49234C20.9681 4.49234 20.7967 4.68458 20.7967 4.92176V5.74323C19.6092 5.90367 18.7843 6.69352 18.7843 7.64166C18.7843 9.14646 20.1388 9.38787 21.1319 9.56414C22.279 9.76787 22.7789 9.93108 22.7789 10.6407C22.7788 11.2207 22.0541 11.7105 21.1996 11.7105ZM31.9246 15.7012C31.6319 15.5644 31.3796 15.4503 31.1607 15.3509C29.8706 14.7669 29.8706 14.7669 29.285 13.4407C29.1912 13.228 29.0839 12.9791 28.9569 12.6996C28.8876 12.547 28.7369 12.4432 28.5709 12.4432C28.5707 12.4432 28.5704 12.4432 28.5702 12.4432C28.4044 12.4432 28.2538 12.546 28.1841 12.698C28.0488 12.9936 27.9356 13.2511 27.8374 13.4725C27.2589 14.7751 27.2589 14.7765 25.9453 15.3679C25.7349 15.4625 25.4943 15.5716 25.2175 15.6997C25.0666 15.7696 24.9696 15.922 24.9693 16.0897C24.969 16.2575 25.0654 16.4102 25.2161 16.4804C25.5089 16.6172 25.7611 16.7314 25.98 16.8305C27.2699 17.4145 27.2699 17.4145 27.8554 18.7407C27.9493 18.9534 28.0566 19.1838 28.1836 19.4633C28.2528 19.6159 28.4035 19.7011 28.5695 19.7011C28.5698 19.7011 28.57 19.7011 28.5703 19.7011C28.736 19.7011 28.8867 19.6169 28.9563 19.4649C29.0917 19.1693 29.2048 18.9211 29.3031 18.6999C29.8815 17.3973 29.8815 17.4006 31.1952 16.8092C31.4058 16.7146 31.6463 16.6078 31.9232 16.4798C32.0741 16.4099 32.1711 16.2586 32.1714 16.0908C32.1717 15.9231 32.0753 15.7713 31.9246 15.7012ZM28.5717 18.2543C27.9495 16.8532 27.8154 16.7231 26.428 16.0924C27.8153 15.464 27.9441 15.3285 28.5688 13.9273C29.1911 15.3284 29.3251 15.4585 30.7126 16.0894C29.3253 16.7177 29.1964 16.8532 28.5717 18.2543ZM4.43325 7.87487C4.52706 8.0873 4.63438 8.32303 4.76138 8.60262C4.83063 8.75516 4.98131 8.84586 5.14731 8.84586C5.14756 8.84586 5.14781 8.84586 5.14806 8.84586C5.31381 8.84586 5.4645 8.75624 5.53413 8.6042C5.6695 8.30851 5.78263 8.05764 5.88075 7.83618C6.45906 6.53391 6.45906 6.5358 7.77275 5.94437C7.98325 5.84977 8.22381 5.74235 8.50075 5.61423C8.65169 5.54437 8.74863 5.39277 8.749 5.22501C8.74925 5.05726 8.65281 4.90516 8.50213 4.83479C8.20938 4.69796 7.95719 4.58392 7.73813 4.48458C6.44813 3.90034 6.44813 3.9004 5.8625 2.57396C5.76881 2.36153 5.6615 2.11842 5.53463 1.83883C5.46563 1.68616 5.31494 1.58789 5.14881 1.58789C5.14856 1.58789 5.14831 1.58789 5.14806 1.58789C4.98231 1.58789 4.83163 1.68521 4.762 1.83725C4.62663 2.13287 4.5135 2.38759 4.41525 2.6088C3.83681 3.91132 3.83681 3.91132 2.523 4.50307C2.31256 4.59767 2.072 4.70604 1.79513 4.83416C1.64419 4.90409 1.54725 5.05619 1.54688 5.22394C1.54663 5.3917 1.64306 5.54424 1.79375 5.61442C2.0865 5.75125 2.33869 5.86536 2.55775 5.96451C3.84769 6.54868 3.84769 6.54868 4.43325 7.87487ZM5.14656 3.06126C5.76863 4.46217 5.903 4.59225 7.29013 5.22318C5.90288 5.85135 5.77406 5.98685 5.14944 7.3877C4.52725 5.98685 4.39313 5.85677 3.00569 5.22609C4.39306 4.59767 4.52181 4.46217 5.14656 3.06126Z" stroke="white" stroke-width="0.6" mask="url(#path-2-outside-2_114_382)"/>
</g>
<defs>
<clipPath id="clip0_114_382">
<rect width="32" height="32.3137" fill="white" transform="translate(0.859375 0.892578)"/>
</clipPath>
</defs>
</svg>
