<svg width="33" height="33" viewBox="0 0 33 33" fill="none" xmlns="http://www.w3.org/2000/svg">
<path d="M28.4062 12.0508V10.5878L23.1653 16.7018C23.0953 16.7835 23.0125 16.8534 22.9202 16.9088L17.9202 19.9088C17.7648 20.002 17.587 20.0513 17.4058 20.0513C17.2245 20.0513 17.0467 20.002 16.8913 19.9088L12.5603 17.3088L8.11325 21.7578C7.98525 21.8858 7.82487 21.9767 7.64925 22.0208L4.40625 22.8318V28.0508H6.40625V24.0508H8.40625V28.0508H11.4062V20.0508H13.4062V28.0508H16.4062V22.0508H18.4062V28.0508H21.4062V19.0508H23.4062V28.0508H26.4062V15.0508H28.4062V28.0508H30.4062V30.0508H3.40625C3.14103 30.0508 2.88668 29.9454 2.69914 29.7579C2.51161 29.5704 2.40625 29.316 2.40625 29.0508V2.05078H4.40625V20.7698L6.89525 20.1508L11.6952 15.3508C11.853 15.1931 12.059 15.0926 12.2804 15.0654C12.5019 15.0382 12.726 15.0859 12.9172 15.2008L17.4062 17.8848L21.7523 15.2768L27.0893 9.05078H25.4062V7.05078H29.4062C29.6715 7.05078 29.9258 7.15614 30.1134 7.34367C30.3009 7.53121 30.4062 7.78556 30.4062 8.05078V12.0508H28.4062ZM17.4062 11.0508C17.141 11.0508 16.8867 10.9454 16.6991 10.7579C16.5116 10.5704 16.4062 10.316 16.4062 10.0508H14.4062C14.4088 10.669 14.6023 11.2714 14.9603 11.7755C15.3183 12.2795 15.8233 12.6607 16.4062 12.8668V14.0508H18.4062V12.8668C19.0729 12.632 19.635 12.1688 19.9929 11.5592C20.3508 10.9497 20.4814 10.2332 20.3616 9.5366C20.2419 8.84 19.8794 8.20826 19.3385 7.75328C18.7976 7.2983 18.1131 7.04944 17.4062 7.05078C17.2085 7.05078 17.0151 6.99213 16.8507 6.88225C16.6862 6.77237 16.5581 6.61619 16.4824 6.43346C16.4067 6.25074 16.3869 6.04967 16.4255 5.85569C16.4641 5.66171 16.5593 5.48353 16.6991 5.34367C16.839 5.20382 17.0172 5.10858 17.2112 5.07C17.4051 5.03141 17.6062 5.05121 17.7889 5.1269C17.9717 5.20259 18.1278 5.33076 18.2377 5.49521C18.3476 5.65966 18.4062 5.853 18.4062 6.05078H20.4062C20.4037 5.43252 20.2102 4.83015 19.8522 4.32608C19.4942 3.82201 18.9892 3.44086 18.4062 3.23478V2.05078H16.4062V3.23478C15.7396 3.4696 15.1775 3.93279 14.8196 4.54231C14.4617 5.15184 14.3311 5.86835 14.4509 6.56496C14.5706 7.26156 14.9331 7.8933 15.474 8.34828C16.0149 8.80326 16.6994 9.05212 17.4062 9.05078C17.6715 9.05078 17.9258 9.15614 18.1134 9.34367C18.3009 9.53121 18.4062 9.78556 18.4062 10.0508C18.4062 10.316 18.3009 10.5704 18.1134 10.7579C17.9258 10.9454 17.6715 11.0508 17.4062 11.0508ZM11.4062 4.05078H6.40625V6.05078H11.4062V4.05078ZM11.4062 7.05078H6.40625V9.05078H11.4062V7.05078ZM11.4062 10.0508H6.40625V12.0508H11.4062V10.0508Z" fill="white"/>
</svg>
