<svg width="19" height="20" viewBox="0 0 19 20" fill="none" xmlns="http://www.w3.org/2000/svg">
<path d="M11.3066 18.3429C11.3066 18.6694 11.5071 18.9625 11.8114 19.0809C12.1158 19.1993 12.4616 19.1187 12.6822 18.878L18.4891 12.5431C18.7013 12.3117 18.7567 11.9766 18.6302 11.6893C18.5038 11.4018 18.2194 11.2163 17.9054 11.2163H1.01258C0.575244 11.2163 0.220727 11.5708 0.220727 12.0081C0.220727 12.4454 0.575244 12.7999 1.01258 12.7999H11.3066V18.3429ZM7.61131 1.4501V6.99305L17.9054 6.99305C18.3427 6.99305 18.6972 7.34759 18.6972 7.7849C18.6972 8.22222 18.3427 8.57675 17.9054 8.57675L1.01258 8.57675C0.698551 8.57675 0.414202 8.39114 0.287749 8.10375C0.161306 7.81626 0.216662 7.48125 0.428857 7.24982L6.23576 0.915016C6.45641 0.674294 6.80221 0.593737 7.10654 0.712091C7.41092 0.830448 7.61131 1.12354 7.61131 1.4501Z" fill="white"/>
</svg>
