<svg width="33" height="33" viewBox="0 0 33 33" fill="none" xmlns="http://www.w3.org/2000/svg">
<path fill-rule="evenodd" clip-rule="evenodd" d="M0.936523 16.8789C0.936523 8.04235 8.09997 0.878906 16.9365 0.878906C25.7731 0.878906 32.9365 8.04235 32.9365 16.8789C32.9365 25.7155 25.7731 32.8789 16.9365 32.8789C8.09997 32.8789 0.936523 25.7155 0.936523 16.8789Z" fill="#441462"/>
<path fill-rule="evenodd" clip-rule="evenodd" d="M16.4573 13.8835L16.4909 14.4372L15.9313 14.3694C13.8944 14.1095 12.115 13.2282 10.6041 11.7481L9.86543 11.0136L9.67517 11.556C9.27227 12.7649 9.52968 14.0417 10.3691 14.9004C10.8167 15.3749 10.716 15.4427 9.94377 15.1603C9.67517 15.0699 9.44015 15.0021 9.41777 15.036C9.33942 15.1151 9.60802 16.1433 9.82067 16.55C10.1116 17.1149 10.7048 17.6686 11.3539 17.9962L11.9023 18.2561L11.2532 18.2674C10.6265 18.2674 10.6041 18.2787 10.6712 18.516C10.8951 19.2504 11.7792 20.03 12.7641 20.369L13.458 20.6062L12.8536 20.9678C11.9583 21.4875 10.9063 21.7813 9.85424 21.8039C9.35062 21.8152 8.93652 21.8604 8.93652 21.8943C8.93652 22.0073 10.3019 22.64 11.0965 22.8886C13.4803 23.623 16.3118 23.3066 18.4383 22.0525C19.9491 21.1599 21.46 19.386 22.1651 17.6686C22.5456 16.7534 22.9261 15.0812 22.9261 14.279C22.9261 13.7592 22.9597 13.6914 23.5864 13.07C23.9557 12.7085 24.3027 12.313 24.3698 12.2C24.4818 11.9853 24.4706 11.9853 23.8998 12.1774C22.9485 12.5164 22.8142 12.4712 23.2842 11.9627C23.6312 11.6012 24.0453 10.9459 24.0453 10.7538C24.0453 10.7199 23.8774 10.7764 23.6871 10.8781C23.4857 10.991 23.038 11.1605 22.7023 11.2622L22.0979 11.4543L21.5495 11.0814C21.2474 10.8781 20.8221 10.6521 20.5982 10.5843C20.0275 10.4261 19.1545 10.4487 18.6397 10.6295C17.2407 11.1379 16.3566 12.4486 16.4573 13.8835Z" fill="white"/>
</svg>
