<svg width="33" height="33" viewBox="0 0 33 33" fill="none" xmlns="http://www.w3.org/2000/svg">
<path fill-rule="evenodd" clip-rule="evenodd" d="M0.936523 16.8789C0.936523 8.04235 8.09997 0.878906 16.9365 0.878906C25.7731 0.878906 32.9365 8.04235 32.9365 16.8789C32.9365 25.7155 25.7731 32.8789 16.9365 32.8789C8.09997 32.8789 0.936523 25.7155 0.936523 16.8789Z" fill="#441462"/>
<path fill-rule="evenodd" clip-rule="evenodd" d="M25.47 16.8672C25.47 17.4443 25.4112 18.0206 25.2958 18.5823C25.1833 19.1307 25.0166 19.6692 24.7983 20.1838C24.585 20.6894 24.3204 21.1766 24.0112 21.631C23.7066 22.0825 23.3557 22.5061 22.9703 22.8922C22.584 23.2766 22.159 23.6265 21.7077 23.9324C21.2519 24.2394 20.764 24.5036 20.2581 24.718C19.7427 24.9352 19.203 25.1016 18.6551 25.2139C18.0926 25.3296 17.5142 25.3887 16.9363 25.3887C16.3579 25.3887 15.7795 25.3296 15.2179 25.2139C14.6691 25.1016 14.1295 24.9352 13.6144 24.718C13.1086 24.5036 12.6202 24.2394 12.1644 23.9324C11.7131 23.6265 11.2881 23.2766 10.9026 22.8922C10.5168 22.5061 10.1659 22.0825 9.86091 21.631C9.55339 21.1766 9.28836 20.6894 9.0742 20.1838C8.85583 19.6692 8.68876 19.1307 8.57583 18.5823C8.46167 18.0206 8.40332 17.4443 8.40332 16.8672C8.40332 16.2897 8.46164 15.7122 8.57587 15.1516C8.68879 14.6032 8.85586 14.064 9.07423 13.5501C9.2884 13.0442 9.55343 12.5565 9.86094 12.1022C10.166 11.6503 10.5168 11.2275 10.9027 10.841C11.2881 10.4565 11.7131 10.1074 12.1644 9.80202C12.6202 9.49368 13.1086 9.2295 13.6145 9.01478C14.1295 8.79712 14.6691 8.6303 15.2179 8.5188C15.7796 8.40397 16.3579 8.3457 16.9363 8.3457C17.5142 8.3457 18.0926 8.40397 18.6551 8.5188C19.2031 8.63033 19.7427 8.79716 20.2581 9.01478C20.764 9.22947 21.2519 9.49368 21.7078 9.80202C22.159 10.1074 22.5841 10.4565 22.9703 10.841C23.3558 11.2275 23.7067 11.6503 24.0112 12.1022C24.3204 12.5565 24.585 13.0442 24.7983 13.5501C25.0166 14.064 25.1833 14.6032 25.2958 15.1516C25.4112 15.7122 25.47 16.2897 25.47 16.8672ZM13.8269 10.2851C11.7947 11.2434 10.278 13.1132 9.805 15.3668C9.99712 15.3684 13.0339 15.4067 16.5329 14.4784C15.2716 12.2407 13.924 10.4145 13.8269 10.2851ZM17.1366 15.599C13.3844 16.7207 9.78376 16.64 9.6546 16.635C9.6525 16.7132 9.64875 16.789 9.64875 16.8672C9.64875 18.7367 10.355 20.4409 11.5159 21.7296C11.5134 21.7258 13.5077 18.1928 17.4404 16.923C17.5354 16.8913 17.6321 16.863 17.7279 16.8356C17.545 16.422 17.3454 16.0076 17.1366 15.599ZM21.749 11.4056C20.466 10.2759 18.7813 9.59067 16.9362 9.59067C16.3441 9.59067 15.7695 9.66224 15.2191 9.79455C15.3282 9.94103 16.6971 11.7543 17.9434 14.0394C20.6931 13.0101 21.7311 11.4322 21.749 11.4056ZM18.2247 18.0414C18.2084 18.0468 18.1922 18.0514 18.1763 18.0572C13.8766 19.554 12.4725 22.5705 12.4573 22.6034C13.6945 23.5641 15.2462 24.1437 16.9363 24.1437C17.9455 24.1437 18.9068 23.9386 19.7814 23.567C19.6735 22.9313 19.2501 20.7027 18.2247 18.0414ZM21.0085 22.9021C22.6449 21.7995 23.807 20.0486 24.1312 18.0206C23.9812 17.9723 21.9423 17.3278 19.5901 17.7043C20.546 20.3274 20.9344 22.4636 21.0085 22.9021ZM18.5043 15.1238C18.6734 15.4708 18.8372 15.824 18.9885 16.179C19.0422 16.3063 19.0947 16.4312 19.146 16.556C21.6494 16.2414 24.1158 16.7706 24.2213 16.7923C24.2046 15.0672 23.5866 13.484 22.5641 12.2445C22.5503 12.264 21.3815 13.9504 18.5043 15.1238Z" fill="white"/>
</svg>
