<svg width="33" height="33" viewBox="0 0 33 33" fill="none" xmlns="http://www.w3.org/2000/svg">
<path fill-rule="evenodd" clip-rule="evenodd" d="M0.936523 16.8789C0.936523 8.04235 8.09997 0.878906 16.9365 0.878906C25.7731 0.878906 32.9365 8.04235 32.9365 16.8789C32.9365 25.7155 25.7731 32.8789 16.9365 32.8789C8.09997 32.8789 0.936523 25.7155 0.936523 16.8789Z" fill="#441462"/>
<path fill-rule="evenodd" clip-rule="evenodd" d="M23.6044 11.3779C24.3387 11.5794 24.9171 12.1732 25.1133 12.9272C25.47 14.2937 25.47 17.1451 25.47 17.1451C25.47 17.1451 25.47 19.9963 25.1133 21.3629C24.9171 22.1169 24.3387 22.7107 23.6044 22.9123C22.2736 23.2784 16.9367 23.2784 16.9367 23.2784C16.9367 23.2784 11.5997 23.2784 10.2688 22.9123C9.53447 22.7107 8.95614 22.1169 8.75988 21.3629C8.40332 19.9963 8.40332 17.1451 8.40332 17.1451C8.40332 17.1451 8.40332 14.2937 8.75988 12.9272C8.95614 12.1732 9.53447 11.5794 10.2688 11.3779C11.5997 11.0117 16.9367 11.0117 16.9367 11.0117C16.9367 11.0117 22.2736 11.0117 23.6044 11.3779ZM15.3367 14.745V20.0783L19.6033 17.4118L15.3367 14.745Z" fill="white"/>
</svg>
